PathFileType	4	(X/Y/Z)	C:\Users\WrightLab\Desktop\Jo\P1.2Trial2.trc
DataRate	CameraRate	NumFrames	NumMarkers	Units	OrigDataRate	OrigDataStartFrame	OrigNumFrames
100.00	100.00	       44	19	mm	100.00	105	       838
Frame#	Time	Headset_Front			Headset_Back			Headset_Left			Headset_Right			Left_Shoulder			Right_Shoulder			Sternum			C7			Left Elbow			Right Elbow			Left Wrist			Right Wrist			Left ASIS			Right ASIS			S2			Left Knee			Right Knee			Left Ankle			Right Ankle			
		X1	Y1	Z1	X2	Y2	Z2	X3	Y3	Z3	X4	Y4	Z4	X5	Y5	Z5	X6	Y6	Z6	X7	Y7	Z7	X8	Y8	Z8	X9	Y9	Z9	X10	Y10	Z10	X11	Y11	Z11	X12	Y12	Z12	X13	Y13	Z13	X14	Y14	Z14	X15	Y15	Z15	X16	Y16	Z16	X17	Y17	Z17	X18	Y18	Z18	X19	Y19	Z19	

105	1.040																												-254.12453	1030.34521	2092.31177				-306.10364	904.07562	1866.97095																			-489.37573	197.88512	1849.20642	
106	1.050																												-255.64828	1028.56506	2084.79468				-307.94574	901.92969	1858.98108																			-491.50287	197.25522	1843.20203	
107	1.060																												-256.97189	1027.06201	2076.94556				-309.39597	900.08112	1851.75928																			-493.32285	196.11739	1834.86328	
108	1.070																												-257.87766	1024.94165	2067.95313				-310.79309	897.71948	1844.60657																			-496.15778	194.47609	1828.97937	
109	1.080																												-259.74567	1023.45837	2060.58203				-312.70929	895.38153	1836.55396																			-498.55945	192.35640	1822.83093	
110	1.090																												-261.22104	1020.91040	2051.59424				-314.59335	892.74768	1825.77734																			-500.18506	188.90712	1816.66882	
111	1.100																												-262.45792	1018.40808	2041.69373				-315.94800	889.98322	1819.09021																			-502.63577	187.50935	1808.28760	
112	1.110																												-264.13260	1016.83966	2033.32214				-317.38144	888.61542	1810.65186																			-504.73123	183.33797	1805.28503	
113	1.120																												-265.20871	1014.22168	2023.80139				-318.21912	885.90173	1800.40039																			-507.51083	179.34627	1799.71094	
114	1.130																												-266.60059	1012.01538	2014.91895				-320.64740	883.31317	1792.13123																			-509.13678	174.01898	1797.75378	
115	1.140																												-268.41446	1009.68964	2006.50757				-322.12726	879.87762	1781.99805																			-511.83389	170.03799	1792.90991	
116	1.150																												-269.69473	1006.66882	1995.45496				-323.31281	876.79443	1773.88733																			-513.60034	165.77446	1789.84192	
117	1.160																												-271.61838	1004.18213	1985.15051				-324.85571	874.37152	1762.69885																			-516.94226	164.59953	1783.36169	
118	1.170																												-272.85056	1001.46643	1974.89587				-326.45343	870.36584	1751.56763																			-520.51965	162.66521	1775.62866	
119	1.180																												-274.27823	998.38776	1964.57214				-327.91901	867.29907	1742.20178																			-523.01385	159.74449	1768.48340	
120	1.190																												-276.34302	995.65106	1952.42200				-329.25201	864.61682	1730.50781																			-526.24396	156.60878	1762.49792	
121	1.200																												-277.97861	993.86536	1942.33728				-330.93607	861.10919	1721.96680																			-528.77405	154.93845	1756.64893	
122	1.210																												-280.09412	991.34363	1930.97046				-332.21509	858.10059	1709.62317																			-530.27740	152.48837	1749.15015	
123	1.220																												-282.22906	989.50092	1918.92432				-333.67816	854.45630	1698.94458																			-531.87799	150.14505	1744.96814	
124	1.230																												-284.13742	987.47906	1907.36853				-334.94431	851.06891	1687.75012																			-533.06464	147.94572	1741.96069	
125	1.240																												-286.68893	986.85962	1895.43066				-336.57840	847.71967	1676.56165																			-535.32184	147.54239	1736.79236	
126	1.250																												-289.06509	986.02850	1883.65100				-337.42368	844.61499	1666.95654																			-538.33234	146.47989	1731.38611	
127	1.260																												-291.43884	985.41034	1871.53430				-339.26559	841.04010	1654.54565																			-540.85510	144.99066	1732.19043	
128	1.270																												-293.84351	985.45728	1859.48499				-339.61765	838.24341	1644.98328																			-543.23810	145.01022	1728.68140	
129	1.280																												-296.38916	985.42511	1849.08545				-340.98782	835.06879	1634.26086																			-544.72113	144.05090	1723.45667	
130	1.290																												-299.41547	985.35669	1836.61365				-341.99811	831.85907	1623.05444																			-547.18365	143.71448	1722.37061	
131	1.300																												-301.22562	985.62134	1825.62683				-343.01813	829.14124	1613.68384																			-548.70349	143.91074	1720.01917	
132	1.310																												-303.95142	985.46954	1813.73901				-343.59384	826.18304	1605.33081																			-548.45007	142.42776	1718.24536	
133	1.320																												-305.79340	985.78888	1802.26184				-344.90167	824.10138	1594.18982																			-549.45715	140.23865	1716.87000	
134	1.330																												-307.75702	986.17078	1791.22424				-345.75708	821.59882	1585.10938																			-549.25531	140.14987	1713.05408	
135	1.340																												-308.89645	983.66986	1777.38647				-346.61844	818.84644	1576.01685																			-549.74231	139.36739	1711.30469	
136	1.350																												-311.58966	983.90302	1765.61401				-346.88593	816.11591	1567.26428																			-549.29480	138.37798	1709.82043	
137	1.360																												-313.04013	984.49475	1754.69141				-347.88370	813.32324	1558.60071																			-547.53943	135.83636	1709.55005	
138	1.370																												-314.07697	984.12323	1743.41101				-348.11923	810.35315	1549.34692																			-547.69543	135.02557	1706.45349	
139	1.380																												-316.63351	984.65118	1733.89429				-349.02823	807.56451	1540.84521																			-547.67297	135.29874	1703.15857	
140	1.390																												-317.34064	984.03168	1723.13147				-349.72983	804.73187	1533.20337																			-548.36719	134.44572	1699.00183	
141	1.400																												-319.20428	984.36298	1712.39001				-349.98569	801.60675	1524.88660																			-548.03918	133.66389	1696.53076	
142	1.410																												-320.65436	984.06470	1702.83057				-350.53674	798.64606	1517.43213																			-547.54095	133.55853	1695.85376	
143	1.420																												-321.97495	983.31903	1691.94495				-351.11450	795.04443	1509.54858																			-546.71442	131.93553	1694.45300	
144	1.430																												-324.12265	983.57507	1683.04578				-351.37305	792.21997	1502.03003																			-546.66711	131.02243	1694.15967	
145	1.440																												-325.12177	982.01074	1672.84387				-352.27228	788.87476	1494.14990																			-546.45880	129.59975	1695.31995	
146	1.450																												-326.94537	980.71887	1660.63672				-352.58386	785.31030	1486.69690																			-546.47333	129.41232	1694.62659	
147	1.460																												-329.32230	979.61224	1651.12634				-352.47568	781.95013	1479.99194																			-546.25146	129.27936	1694.65527	
148	1.470																												-331.16019	978.75629	1642.37512				-352.91254	778.95520	1473.62354																			-546.07703	129.11464	1694.68152	
